<svg xmlns="http://www.w3.org/2000/svg" width="256" height="256" viewBox="0 0 256 256">
  <path fill="#6C757D" d="M128,0 C198.692448,0 256,57.307552 256,128 C256,198.692448 198.692448,256 128,256 C57.307552,256 0,198.692448 0,128 C0,57.307552 57.307552,0 128,0 Z M158.162852,64.8165103 L97.8371482,64.8165103 L34.9658537,126.415009 L97.8371482,188.013508 L158.162852,188.013508 L221.058161,126.415009 L158.162852,64.8165103 Z M128,101.031144 C142.894488,101.031144 154.968856,113.105512 154.968856,128 C154.968856,142.894488 142.894488,154.968856 128,154.968856 C113.105512,154.968856 101.031144,142.894488 101.031144,128 C101.031144,113.105512 113.105512,101.031144 128,101.031144 Z"/>
</svg>
