<svg xmlns="http://www.w3.org/2000/svg" width="256" height="256" viewBox="0 0 256 256">
  <path fill="#6C757D" d="M255.66676,119.033066 C255.862906,121.936396 256,124.848178 256,127.806448 C256.008958,176.021559 229.009052,220.162452 186.124663,242.042388 C143.240274,263.922324 91.7279015,259.838984 52.8114464,231.474768 C122.614208,221.53287 208.922784,188.879916 255.66676,119.033066 Z M21.4871136,57.0451003 C48.4210805,16.5788222 95.9024034,-5.11932324 144.059976,1.03141684 C192.217548,7.18215691 232.746625,40.1210909 248.68564,86.0631552 C250.672664,91.8553542 249.630492,98.2597352 245.910065,103.119691 C233.284995,119.603589 217.376056,133.313054 201.678027,144.710843 L201.678027,144.710843 L201.678027,67.3373108 C201.67803,61.3301916 196.820488,56.458824 190.8246,56.452993 L190.8246,56.452993 L172.71798,56.452993 C166.718797,56.4541598 161.856117,61.3268931 161.856117,67.3373108 L161.856117,67.3373108 L161.856117,161.298282 C161.853279,164.946145 159.673176,168.238649 156.31973,169.659618 C151.905384,171.527554 147.37082,173.365907 147.37082,173.365907 L147.37082,173.365907 L147.37082,94.5491619 C147.37082,88.5375772 142.507195,83.6638979 136.506848,83.662731 L136.506848,83.662731 L118.381245,83.662731 C112.380898,83.6638979 107.517273,88.5375772 107.517273,94.5491619 L107.517273,94.5491619 L107.517273,179.466281 C107.516378,183.674168 104.626644,187.328753 100.538262,188.292489 C97.671996,188.968664 95.0672579,189.613145 93.0319768,190.217477 L93.0319768,190.217477 L93.0319768,121.754674 C93.0319768,115.743431 88.1680107,110.870356 82.1680045,110.870356 L82.1680045,110.870356 L64.0972387,110.811191 C61.2114548,110.797701 58.4392151,111.936632 56.393694,113.97607 C54.3481729,116.015509 53.1979413,118.787384 53.1974117,121.678604 L53.1974117,121.678604 L53.2058481,121.678604 L53.2058481,189.630049 C53.201029,194.23634 49.7489314,198.106658 45.1807239,198.627414 C40.1104483,199.223294 35.8458488,199.65013 32.420671,199.952296 C26.1610461,200.513235 20.1438774,197.390247 16.9904979,191.943838 C-7.1887173,149.767403 -5.44685326,97.5113784 21.4871136,57.0451003 Z"/>
</svg>
