<svg xmlns="http://www.w3.org/2000/svg" width="128" height="128" viewBox="0 0 128 128">
  <g fill="none" fill-rule="evenodd" transform="translate(13 8)">
    <path fill="#00BE00" d="M32.1920236,11 C39.6639653,4.0261877 47.1920236,0 51.1920236,0 C55.1920236,0 61.5649505,3.88139845 69.1920236,11 C74.0103689,15.4971223 77.8546708,20.2225679 80.7249291,25.1763368 C80.9870169,25.4290732 81.1426155,25.7035514 81.1920236,26 C81.5534026,28.1682739 81.6552917,35.7179907 83.1920236,42 C84.0029944,45.3151689 85.810102,50.4993773 88.6133464,57.5526251 C97.3250246,60.5027083 101.851066,62.3180841 102.192024,63 C103.192024,65 95.5035054,79.5141806 81.1920236,93 C66.8805418,106.485819 55.1920236,112 50.1920236,112 C45.1920236,112 30.112407,102.062654 21.1920236,94 C12.2716402,85.9373458 -1.8079764,67 0.192023598,63 C0.921976317,61.5400946 6.44740778,59.1810369 16.768318,55.9228269 C15.8779736,51.0668448 16.019037,47.75948 17.1920236,46 C18.5253569,44 19.8586903,40.6666667 21.1920236,36 L21.1920236,26 C23.5440624,20.6492082 27.2107291,15.6492082 32.1920236,11 Z"/>
    <path fill="#000" d="M51.1920236,2 C54.1920236,2 58.8047623,4.43354547 66.1920236,11 C70.9116628,15.1952348 74.7819255,19.9620502 77.8028118,25.300446 L78.1920236,26 C78.1288642,28.6526231 78.4621975,31.9859564 79.1920236,36 C79.7393932,39.0105327 80.1374049,40.6612441 80.5745683,42.2339667 L80.7307939,42.7878942 C81.1269569,44.1750534 81.5708677,45.6189025 82.1920236,48 C83.1250665,51.5766643 83.7893718,55.8798238 84.1849395,60.9094784 L97.1920236,66 C88.5198218,79.2513103 81.5198218,88.2513103 76.1920236,93 C70.8642254,97.7486897 62.530892,102.415356 51.1920236,107 C39.8586903,101.666667 30.8586903,96 24.1920236,90 C17.5253569,84 11.1920236,76 5.1920236,66 L5.1920236,66 L19.1190236,60.55 L19.0542685,60.1479592 C18.4794386,56.4778912 18.1920236,53.0952381 18.1920236,50 C18.1920236,45 24.1920236,39 24.1920236,35 C24.1920236,31.4639344 23.4105386,27.9278689 23.9201053,25.7734944 C23.8248905,24.8572312 26.5692446,21.2756498 29.7059027,17.7059617 L30.1196788,17.2376854 C32.2670447,14.8209265 34.5456025,12.4634854 36.1920236,11 C40.7595145,6.94000812 48.1920236,2 51.1920236,2 Z"/>
    <path fill="#00B800" d="M7.1920236,67 L17.1920236,63 C24.0762281,74.5508712 29.4095615,82.2175379 33.1920236,86 C36.9744857,89.7824621 41.3078191,91.7824621 46.1920236,92 C41.1331807,88.6190241 37.7998474,85.9523574 36.1920236,84 C34.5841998,82.0476426 33.2508665,79.0476426 32.1920236,75 C34.6457407,76.9809752 36.979074,78.6476419 39.1920236,80 C42.511448,82.0285371 46.3814588,85.5988879 50.1920236,86 C54.0025884,86.4011121 55.4406369,84.322287 59.1920236,82 C61.6929481,80.4518087 65.6929481,77.4518087 71.1920236,73 C69.4383304,76.9690342 67.7716637,79.9690342 66.1920236,82 C64.6123835,84.0309658 61.6123835,87.0309658 57.1920236,91 C63.1654959,89.0265277 67.8321626,86.359861 71.1920236,83 C73.3541138,80.8379098 76.9476375,75.1768518 80.1920236,70 C81.3902563,68.0880595 83.056923,65.7547262 85.1920236,63 L95.1920236,67 C87.0732849,77.2540622 80.0732849,84.9207288 74.1920236,90 C68.3107623,95.0792712 60.6440956,100.079271 51.1920236,105 C49.4586518,104.197914 48.1433399,103.565784 47.2460878,103.103609 C42.3064668,100.559207 36.9551121,97.1913371 31.1920236,93 C23.8586903,87.6666667 15.8586903,79 7.1920236,67 Z"/>
    <path fill="#FFF" d="M7.1920236,67 L17.1920236,63 L24.1920236,74 C19.5253569,68 16.8586903,65 16.1920236,65 C15.5253569,65 12.9586903,66.3333333 8.4920236,69 L7.1920236,67 Z"/>
    <path fill="#060" d="M82.1920236 67L85.1920236 63 95.1920236 67C88.5253569 77 81.8586903 85 75.1920236 91 68.5253569 97 60.5253569 101.666667 51.1920236 105 68.0723686 93.3817622 78.4057019 85.0484289 82.1920236 80 85.9783453 74.9515711 85.9783453 70.6182378 82.1920236 67zM62.1920236 80L71.1920236 73C69.9726216 76.1814249 68.3059549 79.1814249 66.1920236 82 63.0211266 86.2278626 59.1920236 90 57.1920236 91 55.8586903 91.6666667 53.5253569 91.3333333 50.1920236 90 53.5253569 89.3333333 56.5253569 88 59.1920236 86 61.8586903 84 62.8586903 82 62.1920236 80z"/>
    <path fill="#00B800" d="M40.1920236,75 C28.1920236,65.6666667 21.8586903,60.3333333 21.1920236,59 C20.1920236,57 20.1920236,51 24.1920236,40 C26.8586903,32.6666667 31.8586903,26.3333333 39.1920236,21 C43.8586903,19 47.8586903,18 51.1920236,18 C54.5253569,18 58.5253569,19.3333333 63.1920236,22 C70.7867417,29.9432311 75.4534084,35.9432311 77.1920236,40 C78.9306388,44.0567689 80.2639722,50.3901022 81.1920236,59 C78.2585072,60.9791015 75.5918406,62.9791015 73.1920236,65 C70.7922066,67.0208985 67.12554,70.3542318 62.1920236,75 C70.8586903,64.3333333 75.1920236,56.6666667 75.1920236,52 C75.1920236,47.3333333 67.1920236,40.6666667 51.1920236,32 C35.1920236,40.6666667 27.1920236,47.6666667 27.1920236,53 C27.1920236,58.3333333 31.5253569,65.6666667 40.1920236,75 Z"/>
    <path fill="#00B800" d="M26.1920236,26 C26.1920236,23 45.1920236,3 50.1920236,4 C55.1920236,5 76.372401,24.2943384 76.1920236,27 C76.0116462,29.7056616 62.6703928,18.7553261 50.1920236,19 C37.7136544,19.2446739 26.1920236,29 26.1920236,26 Z"/>
    <path fill="#006800" d="M51.1920236,4 C53.1114526,4.09806626 55.444786,5.09806626 58.1920236,7 C71.1920236,16 75.1935118,23.5037206 76.1920236,26 C78.1920236,31 64.4012647,22.7557757 63.1920236,22 C61.9827825,21.2442243 71.1920236,24 68.1920236,20 C66.1920236,17.3333333 60.5253569,12 51.1920236,4 Z"/>
    <path fill="#FFF" d="M39.1920236 11C38.1920236 11 25.5790326 24.677946 25.1920236 27 24.8050146 29.322054 37.1920236 23 37.1920236 22 37.1920236 21 28.5431104 27.8934794 29.1920236 24 29.8409368 20.1065206 40.1920236 11 39.1920236 11zM28.1920236 32C24.041412 41.8470964 22.041412 49.1804297 22.1920236 54 22.3426352 58.8195703 25.0093018 63.1529036 30.1920236 67 23.5253569 63.6666667 20.1920236 59.3333333 20.1920236 54 20.1920236 48.6666667 22.8586903 41.3333333 28.1920236 32z"/>
    <path fill="#006300" d="M71.1920236,31 C75.1920236,40.3333333 77.5253569,47.6666667 78.1920236,53 C78.8586903,58.3333333 77.1920236,62.3333333 73.1920236,65 L81.1920236,59 C80.6427782,53.390125 80.3094449,50.0567917 80.1920236,49 C79.5253569,43 76.5253569,37 71.1920236,31 Z"/>
    <path fill="#FFCEBA" d="M39.1920236,64 C39.1920236,66 47.1920236,83 50.1920236,83 C53.1920236,83 62.023564,66.1899744 62.1920236,64 C62.3604832,61.8100256 57.1206676,70 51.1920236,70 C45.2633796,70 39.1920236,62 39.1920236,64 Z"/>
    <path fill="#F0946D" d="M39.1920236,63 C40.5937061,62.7196635 45.7603533,69.7638404 51.1920236,70 C56.6236939,70.2361596 62.5248512,59.6732416 62.1920236,64 C62.0138322,66.3164887 58.1830278,75.2351445 55.1920236,79 C52.5964034,82.2671754 51.1920236,83 50.1920236,83 C48.4130299,83 55.9283368,75.2089396 55.1920236,73 C54.4557104,70.7910604 48.9963372,72.2268872 46.1920236,71 C43.38771,69.7731128 37.7903411,63.2803365 39.1920236,63 Z"/>
    <path fill="#FFCEBA" d="M34.1920236,52 C34.1920236,49 43.1019897,44 51.1920236,44 C59.2820575,44 67.1920236,50 67.1920236,52 C67.1920236,54 59.5395633,67 51.1920236,67 C42.8444839,67 34.1920236,55 34.1920236,52 Z"/>
    <path fill="#F0946D" d="M34.1920236,52 C34.4305174,53.1924692 48.1920236,44 52.1920236,48 C56.1920236,52 47.1920236,66 50.1920236,67 C51.2868226,67.364933 54.3823592,67.0770382 57.1920236,65 C62.0814829,61.385478 67.1920236,54.5402679 67.1920236,52 C67.1920236,48 57.1920236,44 52.1920236,44 C50.6866859,44 43.1920236,44 37.1920236,48 C34.536079,49.7706297 34.1449625,51.7646947 34.1920236,52 Z"/>
    <path fill="#000" d="M51.1920236,56 C49.1920236,56 46.3822309,57.2005647 44.1920236,57 C42.9480425,56.8860844 41.2813758,56.2194177 39.1920236,55 C40.7677558,55.2959918 42.4344225,55.2959918 44.1920236,55 C44.9986847,54.8641528 46.332018,54.1974862 48.1920236,53 L54.1920236,53 C55.4491465,54.2266498 56.4491465,54.8933164 57.1920236,55 C60.91703,55.5349431 62.5072079,54.5272235 62.1920236,55 C61.8298352,55.5432827 59.8194854,56.9033474 57.1920236,57 C55.3637934,57.0672524 53.1920236,56 51.1920236,56 Z"/>
    <path fill="#000" d="M44.1920236 50C44.1920236 49 48.0970016 52 51.1920236 52 54.2870456 52 57.1920236 49 57.1920236 50 57.1920236 51 52.6920236 55 51.1920236 55 49.6920236 55 44.1920236 51 44.1920236 50zM47.1920236 58C47.1920236 56.8956568 49.1920236 58 51.1920236 58 53.1920236 58 55.1920236 57 55.1920236 58 55.1920236 58.4681564 53.8634933 60.4688057 53.1920236 62 52.4292084 63.7394951 52.2557107 65 51.1920236 65 50.1433725 65 49.9523824 63.7011502 49.1920236 62 48.502217 60.4566961 47.1920236 58.5253078 47.1920236 58z"/>
  </g>
</svg>
