<svg xmlns="http://www.w3.org/2000/svg" width="256" height="256" viewBox="0 0 256 256">
  <path fill="#ffffff" fill-rule="evenodd" d="M175.242902,0 C196.239748,0 212.391167,19.2 209.160883,40 L200.277603,88.8 C231.772871,102.4 256,126.4 256,156 L256,174.4 C256,199.2 239.84858,220 216.429022,233.6 C193.009464,248 162.321767,256 127.596215,256 C92.8706625,256 62.1829653,248 38.7634069,233.6 C16.1514196,220 0,199.2 0,174.4 L0,156 C0,126.4 23.4195584,102.4 54.9148265,88.8 L46.0315457,40 C41.9936909,19.2 58.1451104,0 79.1419558,0 C97.7160883,0 113.059937,15.2 113.059937,33.6 L113.059937,75.2 C117.905363,75.2 122.750789,74.4 127.596215,74.4 C132.44164,74.4 136.479495,74.4 141.324921,75.2 L141.324921,33.6 C141.324921,15.2 156.66877,0 175.242902,0 Z M11.3133439,156.000924 L11.3059937,156 L11.3059937,174.4 C11.3059937,213.6 63.7981073,245.6 128.403785,245.6 C193.009464,245.6 245.501577,213.6 245.501577,174.4 L245.501577,174.4 L245.501577,156 C245.499035,156.26693 245.501577,156.533292 245.501577,156.8 C245.501577,196 193.009464,228 128.403785,228 C63.7981073,228 11.3059937,196 11.3059937,156.8 C11.3059937,156.533292 11.308448,156.26693 11.3133439,156.000924 Z M82.3722397,132 C75.1041009,132 69.4511041,140.8 69.4511041,151.2 C69.4511041,161.6 75.1041009,170.4 82.3722397,170.4 C89.6403785,170.4 95.2933754,161.6 95.2933754,151.2 C95.2933754,140.8 89.6403785,132 82.3722397,132 Z M172.012618,132 C164.744479,132 159.091483,140.8 159.091483,151.2 C159.091483,161.6 164.744479,170.4 172.012618,170.4 C179.280757,170.4 184.933754,161.6 184.933754,151.2 C184.933754,140.8 179.280757,132 172.012618,132 Z"/>
</svg>
